<?xml version="1.0" encoding="UTF-8"?>
<!DOCTYPE svg PUBLIC "-//W3C//DTD SVG 1.1//EN" "http://www.w3.org/Graphics/SVG/1.1/DTD/svg11.dtd">
<svg xmlns="http://www.w3.org/2000/svg" xml:space="preserve" width="250" height="250" version="1.1" style="shape-rendering:geometricPrecision; text-rendering:geometricPrecision; image-rendering:optimizeQuality; fill-rule:evenodd; clip-rule:evenodd"
viewBox="0 0 25000 25000"
 xmlns:xlink="http://www.w3.org/1999/xlink">
 <defs>
  <style type="text/css">
   <![CDATA[
    .str0 {stroke:white;stroke-width:32.67}
    .fil3 {fill:none}
    .fil0 {fill:black}
    .fil2 {fill:#878787}
    .fil1 {fill:#EF7D05}
   ]]>
  </style>
 </defs>
 <g id="Ebene_x0020_1">
  <metadata id="CorelCorpID_0Corel-Layer"/>
  <g id="_421528256">
   <g id="Ebene_1">
    <g>
     <path class="fil0" d="M2967 21199l-1098 -1594 274 0 954 1398 -130 196zm823 -1594l274 0 -888 1293 -131 -183 745 -1110z"/>
     <polygon class="fil0" points="4286,19605 4548,19605 4548,21134 4286,21134 "/>
     <polygon class="fil0" points="4953,19605 5214,19605 5214,21134 4953,21134 "/>
     <path class="fil0" d="M5397 20990l1372 0 0 131 -1372 0 0 -131zm0 -1385l1372 0 0 130 -1372 0 0 -130zm0 679l1307 0 0 131 -1307 0 0 -131z"/>
     <polygon class="fil0" points="6939,19605 7200,19605 7828,20768 8638,19539 9448,20768 10062,19605 10323,19605 9461,21186 8625,19918 7775,21186 "/>
     <path class="fil1" d="M11264 21147c-157,0 -300,-13 -444,-53 -144,-39 -262,-91 -366,-169l183 -92c65,52 157,105 274,144 105,39 222,52 353,52 78,0 144,-13 209,-26 65,-13 118,-39 157,-65 39,-27 78,-66 104,-92 27,-26 40,-78 40,-117 0,-40 -13,-79 -40,-105 -26,-26 -52,-52 -91,-78 -39,-27 -78,-40 -131,-53 -52,-13 -104,-26 -156,-39l-288 -65c-65,-13 -131,-39 -196,-52 -65,-27 -118,-53 -170,-79 -52,-26 -78,-65 -117,-104 -27,-40 -40,-92 -40,-144 0,-52 13,-105 53,-157 39,-52 91,-91 156,-118 66,-39 144,-65 223,-78 91,-26 183,-26 287,-26 144,0 261,13 366,39 91,26 183,65 274,105l-156 104c-66,-39 -131,-65 -210,-91 -78,-26 -169,-26 -274,-26 -65,0 -131,0 -183,13 -52,13 -104,26 -144,52 -39,26 -78,52 -91,78 -13,26 -39,66 -39,105 0,39 13,65 26,91 26,26 52,53 78,66 39,26 79,39 118,52 39,13 91,26 144,39l274 65c78,14 144,40 209,66 65,26 131,52 183,78 52,39 91,66 131,118 26,39 52,91 52,157 0,65 -26,117 -65,169 -40,53 -92,105 -170,144 -66,39 -157,66 -249,92 -65,-13 -169,0 -274,0z"/>
     <polygon class="fil1" points="12793,19735 12140,19735 12140,19605 13694,19605 13694,19735 13041,19735 13041,21121 12780,21121 12780,19735 "/>
     <polygon class="fil1" points="16608,19735 15955,19735 15955,19605 17510,19605 17510,19735 16857,19735 16857,21121 16595,21121 16595,19735 "/>
     <polygon class="fil1" points="17706,19605 17967,19605 17967,21134 17706,21134 "/>
     <path class="fil1" d="M19431 19722c-118,0 -222,27 -314,53 -130,39 -235,78 -313,143 -79,66 -157,131 -209,209 -53,79 -79,157 -79,249 0,91 26,170 79,248 52,78 117,144 209,209 91,52 196,105 313,144 92,26 196,39 314,52l0 131c-144,0 -275,-26 -392,-53 -157,-39 -288,-91 -405,-169 -118,-66 -209,-157 -275,-249 -65,-91 -104,-196 -104,-313 0,-105 39,-209 104,-301 66,-91 157,-183 275,-248 117,-65 248,-131 405,-170 130,-39 261,-52 392,-65l0 130zm130 1294c131,0 262,-13 379,-52 118,-39 236,-79 314,-144 91,-52 157,-131 209,-209 52,-78 78,-157 78,-248 0,-92 -26,-183 -78,-262 -52,-78 -118,-143 -196,-209 -91,-52 -196,-104 -314,-143 -117,-27 -235,-53 -378,-53l0 -130c169,0 326,26 457,65 157,39 287,91 405,170 118,78 196,157 261,248 66,92 92,196 92,314 0,117 -26,222 -92,313 -65,92 -157,183 -261,249 -118,65 -248,130 -392,169 -144,40 -301,53 -457,53l0 -131 -27 0z"/>
     <polygon class="fil1" points="21077,19553 22880,20781 22880,19605 23142,19605 23142,21186 21339,19958 21339,21134 21077,21134 "/>
    </g>
    <g>
     <polygon class="fil0" points="5698,11595 10572,18703 11369,17540 7292,11595 "/>
     <polygon class="fil0" points="11748,16965 15419,11595 13838,11595 10990,15842 "/>
    </g>
    <g>
     <path class="fil2" d="M5724 18755c-105,0 -209,-13 -301,-39 -91,-26 -183,-65 -248,-104 -65,-39 -131,-92 -170,-157 -39,-65 -65,-118 -65,-196l261 0c0,52 13,91 39,131 26,39 66,78 105,117 52,39 104,52 170,79 65,26 143,26 222,26 78,0 157,-13 222,-26 65,-13 118,-40 170,-79 39,-26 78,-65 104,-104 27,-40 40,-79 40,-131 0,-39 -13,-78 -27,-118 -26,-39 -52,-78 -91,-104 -39,-26 -105,-52 -170,-65 -65,-14 -157,-27 -261,-27l0 -130c78,0 130,-13 196,-26 52,-13 104,-27 130,-53 40,-26 66,-52 79,-78 13,-26 26,-65 26,-92 0,-26 -13,-65 -26,-91 -13,-26 -39,-52 -79,-78 -39,-27 -78,-40 -117,-53 -52,-13 -105,-26 -170,-26 -65,0 -131,13 -170,26 -52,13 -91,40 -118,53 -39,26 -52,52 -78,78 -13,26 -26,65 -26,105l-248 0c0,-53 13,-105 52,-157 39,-53 78,-92 144,-131 65,-39 130,-65 209,-78 78,-26 170,-26 261,-26 92,0 170,13 248,26 79,26 144,52 196,78 53,26 105,78 131,118 26,52 52,104 52,156 0,27 -13,66 -26,92 -13,26 -39,65 -65,91 -26,27 -65,53 -105,79 -39,26 -78,39 -130,52 130,26 235,65 313,131 79,65 118,157 118,248 0,65 -26,131 -65,183 -40,52 -92,104 -170,157 -66,39 -157,78 -249,104 -104,26 -209,39 -313,39z"/>
     <path class="fil2" d="M6821 17214l693 0c39,0 104,0 157,0 65,0 130,13 183,13 130,13 261,39 379,78 117,39 222,92 300,157 92,65 157,144 209,222 52,78 79,183 79,274 0,92 -27,183 -66,262 -39,78 -104,157 -183,222 -78,65 -170,117 -287,170 -105,39 -235,78 -353,91 -52,13 -118,13 -183,13 -65,0 -144,0 -222,0l-693 0 0 -1502 -13 0zm680 1385c65,0 131,0 196,0 65,0 117,-13 170,-13 104,-13 196,-40 287,-79 92,-39 157,-78 222,-130 66,-53 105,-105 144,-183 39,-66 52,-131 52,-209 0,-79 -13,-157 -52,-223 -39,-65 -91,-130 -144,-183 -65,-52 -143,-91 -235,-130 -91,-39 -196,-66 -300,-79 -53,-13 -105,-13 -157,-13 -52,0 -118,0 -170,0l-431 0 0 1255 418 0 0 -13z"/>
    </g>
    <g>
     <polygon class="fil1" points="14426,20506 14831,19918 15223,20506 15498,20506 14831,19526 14165,20506 "/>
     <polygon class="fil1" points="14073,20637 13734,21134 14008,21134 14348,20637 "/>
     <polygon class="fil1" points="15315,20637 15641,21134 15916,21134 15589,20637 "/>
    </g>
    <g>
     <path class="fil1" d="M21678 14574l-5083 0c-313,0 -562,-248 -562,-562l0 -366c0,-313 249,-562 562,-562l4247 0 902 -1332 -5606 0 -2705 4050 7435 0c314,0 562,249 562,562l0 366c0,314 -248,562 -562,562l-8415 0 -954 1437 9160 0c653,0 1189,-287 1555,-823 274,-418 418,-888 418,-1411 0,-719 -235,-1294 -679,-1712 -79,-78 -170,-157 -275,-209z"/>
     <polygon class="fil0" points="22501,11791 21626,13084 22501,13084 "/>
    </g>
   </g>
   <g id="Ebene_3">
   </g>
   <g id="Ebene_2">
    <g>
     <g>
      <path class="fil0" d="M11329 12692c-39,0 -78,0 -117,0 144,-117 144,-287 170,-457 26,105 0,209 -26,314 13,-13 26,-13 39,-26 91,-66 130,-236 104,-340 -13,-52 -52,-92 -104,-118 -105,-39 -183,-130 -249,-235 -65,13 -91,65 -117,118 0,-66 13,-105 52,-144 105,-92 222,-183 340,-261 196,-131 405,-249 601,-366 366,-235 706,-510 1006,-823 52,-53 92,-105 131,-157 91,-118 183,-249 326,-340 -91,-26 -169,-13 -235,13 -78,26 -144,52 -222,78 26,-26 52,-39 78,-65 118,-78 236,-117 379,-131 157,-13 288,-52 432,-104 287,-105 575,-209 849,-314 392,-143 745,-352 1071,-601 157,-117 314,-235 458,-366 130,-117 235,-248 326,-392 0,-13 14,-26 27,-52 -379,222 -797,235 -1203,340 40,-26 79,-39 131,-52 39,-13 79,-40 131,-53 157,-52 313,-104 470,-143 288,-79 523,-249 693,-497 91,-118 209,-235 300,-274 -65,91 -143,196 -222,300 -65,105 -117,222 -183,340 105,39 170,104 235,170 66,65 131,117 196,170 27,26 53,13 79,-13 209,-209 366,-458 496,-732 53,-118 105,-235 157,-353 0,-13 13,-26 13,-52 -13,-209 66,-379 157,-549 78,-144 170,-261 287,-366 66,-52 66,-78 66,-209 52,52 52,170 -13,235 -105,105 -183,209 -249,340 -78,157 -130,327 -104,510 13,91 -13,156 -52,222 -209,379 -445,745 -706,1084 -52,79 -78,157 -65,235 26,210 78,406 248,549 39,39 78,79 118,118 169,183 352,353 522,536 39,39 79,104 118,156 65,-104 26,-209 39,-300 0,0 13,0 13,0 26,91 52,170 65,261 0,39 -13,92 -39,105 -143,104 -157,261 -170,418 0,117 13,235 79,340 13,13 0,39 0,52 -39,52 -92,117 -131,170 144,0 275,-26 405,-118 118,-91 196,-196 209,-353 13,144 -13,288 -157,366 -78,39 -78,66 0,105 14,0 14,13 40,13 -26,39 -53,78 -92,130 131,-26 262,-39 392,-104 92,-52 144,-131 170,-222 13,-65 26,-118 39,-183 0,0 13,0 13,0 -13,78 -13,170 -26,248 92,-26 157,-104 157,-209 -13,-170 -13,-340 -26,-509 0,-66 -13,-118 -52,-170 -144,-196 -275,-405 -405,-601 -118,-157 -183,-353 -249,-536 -26,-52 -39,-105 -65,-157 -13,-39 -52,-65 -92,-78 -91,-27 -182,-13 -274,26 -91,26 -157,13 -209,-66 118,66 209,0 314,-26 65,-13 130,-26 183,-26 13,0 39,-13 52,-26 170,-183 326,-353 483,-536 118,-143 235,-287 340,-431 39,-52 39,-78 -26,-104 -52,-27 -118,-40 -183,-53 -26,-13 -52,0 -92,-13 92,-39 183,-26 275,-13 52,13 117,26 170,52 196,79 392,79 601,40 91,-27 183,-53 261,-79 -248,222 -536,288 -862,170 -39,-13 -53,-13 -79,26 -222,353 -470,680 -758,967 -26,26 -26,39 -26,79 40,130 79,261 170,365 13,14 26,27 52,27 249,13 497,39 758,-14 209,-39 366,-143 458,-339 0,-13 13,-26 13,-39 78,-249 287,-314 509,-379 144,-40 301,-40 471,-13 -105,13 -196,26 -288,39 -157,26 -313,91 -431,209 -13,13 -26,39 -26,52 -13,248 -52,484 -170,706 105,-13 209,-26 314,26 -288,-13 -510,144 -745,274 131,52 196,105 222,209 -91,-104 -209,-157 -340,-183 -13,0 -39,-13 -52,-13 -131,0 -261,13 -405,13 13,26 13,40 26,66 52,91 118,183 170,274 78,105 91,222 65,353 -13,52 -26,91 -26,157 170,-13 327,-13 444,-144 157,-157 340,-261 549,-314 39,-13 79,-13 131,-13 144,0 235,-78 287,-196 40,-78 66,-157 92,-248 104,-314 274,-562 496,-797 53,-52 105,-105 170,-157 79,-91 79,-196 79,-300 13,-144 13,-288 52,-432 26,-104 78,-222 131,-313 91,-183 196,-366 300,-536 0,0 0,-13 13,-39 -91,-26 -183,-65 -274,-92 -79,-26 -170,-52 -248,-65 -40,-13 -79,0 -118,13 -170,52 -327,144 -470,235 -27,13 -53,26 -79,40 131,-196 340,-301 549,-392 -144,-157 -248,-340 -288,-549 -26,-131 -39,-249 -52,-392 39,157 79,300 131,444 78,196 209,366 405,470 78,40 157,53 248,79 196,52 379,170 549,274 196,131 405,183 627,183 118,0 222,-65 314,-144 -39,-39 -79,-65 -131,-39 -196,66 -379,13 -523,-104 -78,-66 -143,-144 -209,-222 -78,-92 -65,-196 0,-288 53,-65 105,-131 170,-183 170,-144 196,-327 131,-523 -13,-26 -13,-52 -26,-65 -26,-65 -52,-91 -131,-78 -170,0 -313,-26 -431,-157 -52,-52 -183,-26 -235,39 -53,65 -92,144 -131,222 -65,118 -157,170 -287,118 0,0 -13,0 -13,-13 39,0 65,0 91,0 78,-13 131,-52 170,-118 39,-78 78,-157 131,-235 65,-91 156,-118 261,-105 13,0 39,0 39,0 105,-78 222,-65 327,-26 183,53 261,183 300,353 26,118 53,248 26,366 -26,105 -65,183 -143,261 -53,53 -105,105 -157,157 -79,92 -79,183 -13,275 117,169 274,287 496,300 118,13 209,-52 275,-131 13,-13 13,-13 26,-26 0,26 13,53 13,79 13,52 52,78 104,65 53,-13 105,-39 144,-78 105,-92 144,-275 105,-379 -79,91 -170,170 -275,209 -39,13 -52,13 -78,-26 -52,-66 -118,-105 -183,-170 -13,-13 -26,-39 -39,-66 26,-13 52,-26 78,-26 131,13 248,13 379,26 79,14 105,-13 79,-91 -53,-196 -131,-379 -223,-562 -78,-157 -52,-287 53,-392 65,-65 143,-78 235,-65 91,13 91,13 131,-66 0,0 13,-13 13,-13 0,-26 0,-52 0,-91 -79,-144 -157,-301 -236,-444 -104,-183 -222,-340 -379,-484 157,65 262,183 366,314 66,-249 -26,-523 -261,-654 -118,-65 -209,-26 -261,92 -26,39 -26,91 -53,131 -13,0 -39,-14 -52,-14 -196,-52 -392,-78 -588,-13 -13,0 -26,0 -52,0 -105,-13 -196,-26 -301,-13 -117,13 -222,13 -326,-26 0,0 0,0 0,0 39,66 91,131 117,209 66,118 66,262 92,392 0,39 -26,53 -39,39 -27,-13 -40,-39 -53,-65 -13,-52 -13,-91 -13,-144 -13,-117 -39,-235 -130,-339 -79,-105 -196,-157 -327,-118 -118,26 -170,118 -196,222 -13,79 0,170 0,248 13,105 39,196 52,301 13,92 26,183 105,248 -92,-13 -157,-65 -170,-156 -26,-118 -39,-236 -66,-340 -26,-118 -39,-249 0,-366 40,-118 118,-196 249,-222 91,-13 183,13 261,39 105,39 196,52 301,26 117,-26 222,-39 339,-13 40,13 92,0 131,0 39,0 78,-13 118,0 65,0 130,13 209,26 -40,-26 -79,-52 -118,-78 -209,-157 -418,-314 -640,-471 -131,-91 -248,-183 -405,-235 -79,-13 -144,-26 -222,-52 -66,0 -144,0 -209,13 -53,13 -105,39 -170,52 104,39 183,66 261,92 78,26 157,78 235,156 -313,-156 -614,-261 -954,-143 -326,104 -548,339 -666,653 118,-65 235,-131 392,-118 -13,14 -26,14 -39,14 -249,78 -458,209 -628,405 -104,130 -196,274 -287,418 -13,13 -26,26 -39,39 -26,26 -79,39 -105,65 -65,79 -117,157 -157,249 -65,117 -143,222 -248,300 -248,196 -522,327 -810,418 -104,39 -222,53 -327,79 0,0 0,-13 0,-13 92,-40 183,-79 275,-118 -13,-13 -13,-13 -13,-13 -13,0 -26,0 -53,0 -222,26 -444,-26 -640,-118 -91,-39 -183,-78 -287,-91 -235,-52 -484,-52 -706,65 -26,13 -39,26 -65,26 -66,13 -144,13 -209,13 -275,53 -497,196 -667,405 -183,210 -339,445 -496,667 -118,157 -196,340 -248,536 -27,91 -53,169 -92,248 -144,300 -287,588 -431,888 -52,118 -118,236 -170,340 -13,26 -39,52 -52,92 209,-118 392,-249 562,-405 130,-131 274,-249 418,-366 52,-40 117,-79 170,-118 0,13 0,26 -13,26 -105,105 -223,196 -327,314 -209,209 -405,418 -667,562 -117,65 -209,156 -287,261 -118,131 -261,235 -444,274 -131,13 -249,79 -327,170 -118,131 -235,275 -327,418 -170,275 -379,484 -614,706 -39,26 -65,65 -104,92 -40,26 -66,52 -105,91 301,-157 575,-340 810,-575 92,-91 157,-209 209,-314 92,-169 249,-274 418,-300 0,0 0,13 0,13 -182,91 -300,235 -378,405 -53,118 -118,235 -223,314 -196,170 -418,300 -653,418 -300,144 -588,326 -836,562 -157,130 -275,300 -444,431 -131,91 -170,261 -183,418 0,39 13,78 26,105 52,65 104,117 157,169 26,27 78,40 117,66 0,0 13,-13 13,-13 13,39 13,65 26,104 105,-104 157,-300 118,-483 39,52 65,104 52,156 -13,79 -39,157 -65,236 -13,39 0,52 39,65 39,0 78,0 118,0 0,26 0,65 -13,105 130,-157 209,-340 169,-549 14,26 40,52 40,78 13,131 -40,248 -92,379 52,0 105,13 144,13 0,0 0,13 0,26 -13,66 -39,79 -105,79l196 -27zm9108 -8271c0,183 -26,340 39,497 -91,-92 -117,-209 -104,-340 -131,274 -92,562 -66,849 -65,-39 -117,-78 -183,-104 26,52 53,91 79,131 26,39 65,91 91,130 -157,-91 -274,-287 -235,-418 52,39 91,65 157,105 0,-288 -13,-588 222,-850zm575 3620c-144,26 -379,-26 -497,-118 -91,-65 -143,-144 -170,-248 -52,-209 118,-353 275,-379 -39,26 -65,52 -105,65 -104,79 -130,170 -78,301 65,170 196,274 366,313 65,40 130,53 209,66zm-6115 -693c0,0 0,0 0,0 0,-144 0,-287 13,-431 0,-91 13,-183 52,-261 39,-92 104,-157 196,-196 -39,65 -78,117 -105,183 -39,130 -65,261 -91,405 -26,104 -52,209 -65,300z"/>
      <path id="1" class="fil3 str0" d="M11329 12692c-39,0 -78,0 -117,0 144,-117 144,-287 170,-457 26,105 0,209 -26,314 13,-13 26,-13 39,-26 91,-66 130,-236 104,-340 -13,-52 -52,-92 -104,-118 -105,-39 -183,-130 -249,-235 -65,13 -91,65 -117,118 0,-66 13,-105 52,-144 105,-92 222,-183 340,-261 196,-131 405,-249 601,-366 366,-235 706,-510 1006,-823 52,-53 92,-105 131,-157 91,-118 183,-249 326,-340 -91,-26 -169,-13 -235,13 -78,26 -144,52 -222,78 26,-26 52,-39 78,-65 118,-78 236,-117 379,-131 157,-13 288,-52 432,-104 287,-105 575,-209 849,-314 392,-143 745,-352 1071,-601 157,-117 314,-235 458,-366 130,-117 235,-248 326,-392 0,-13 14,-26 27,-52 -379,222 -797,235 -1203,340 40,-26 79,-39 131,-52 39,-13 79,-40 131,-53 157,-52 313,-104 470,-143 288,-79 523,-249 693,-497 91,-118 209,-235 300,-274 -65,91 -143,196 -222,300 -65,105 -117,222 -183,340 105,39 170,104 235,170 66,65 131,117 196,170 27,26 53,13 79,-13 209,-209 366,-458 496,-732 53,-118 105,-235 157,-353 0,-13 13,-26 13,-52 -13,-209 66,-379 157,-549 78,-144 170,-261 287,-366 66,-52 66,-78 66,-209 52,52 52,170 -13,235 -105,105 -183,209 -249,340 -78,157 -130,327 -104,510 13,91 -13,156 -52,222 -209,379 -445,745 -706,1084 -52,79 -78,157 -65,235 26,210 78,406 248,549 39,39 78,79 118,118 169,183 352,353 522,536 39,39 79,104 118,156 65,-104 26,-209 39,-300 0,0 13,0 13,0 26,91 52,170 65,261 0,39 -13,92 -39,105 -143,104 -157,261 -170,418 0,117 13,235 79,340 13,13 0,39 0,52 -39,52 -92,117 -131,170 144,0 275,-26 405,-118 118,-91 196,-196 209,-353 13,144 -13,288 -157,366 -78,39 -78,66 0,105 14,0 14,13 40,13 -26,39 -53,78 -92,130 131,-26 262,-39 392,-104 92,-52 144,-131 170,-222 13,-65 26,-118 39,-183 0,0 13,0 13,0 -13,78 -13,170 -26,248 92,-26 157,-104 157,-209 -13,-170 -13,-340 -26,-509 0,-66 -13,-118 -52,-170 -144,-196 -275,-405 -405,-601 -118,-157 -183,-353 -249,-536 -26,-52 -39,-105 -65,-157 -13,-39 -52,-65 -92,-78 -91,-27 -182,-13 -274,26 -91,26 -157,13 -209,-66 118,66 209,0 314,-26 65,-13 130,-26 183,-26 13,0 39,-13 52,-26 170,-183 326,-353 483,-536 118,-143 235,-287 340,-431 39,-52 39,-78 -26,-104 -52,-27 -118,-40 -183,-53 -26,-13 -52,0 -92,-13 92,-39 183,-26 275,-13 52,13 117,26 170,52 196,79 392,79 601,40 91,-27 183,-53 261,-79 -248,222 -536,288 -862,170 -39,-13 -53,-13 -79,26 -222,353 -470,680 -758,967 -26,26 -26,39 -26,79 40,130 79,261 170,365 13,14 26,27 52,27 249,13 497,39 758,-14 209,-39 366,-143 458,-339 0,-13 13,-26 13,-39 78,-249 287,-314 509,-379 144,-40 301,-40 471,-13 -105,13 -196,26 -288,39 -157,26 -313,91 -431,209 -13,13 -26,39 -26,52 -13,248 -52,484 -170,706 105,-13 209,-26 314,26 -288,-13 -510,144 -745,274 131,52 196,105 222,209 -91,-104 -209,-157 -340,-183 -13,0 -39,-13 -52,-13 -131,0 -261,13 -405,13 13,26 13,40 26,66 52,91 118,183 170,274 78,105 91,222 65,353 -13,52 -26,91 -26,157 170,-13 327,-13 444,-144 157,-157 340,-261 549,-314 39,-13 79,-13 131,-13 144,0 235,-78 287,-196 40,-78 66,-157 92,-248 104,-314 274,-562 496,-797 53,-52 105,-105 170,-157 79,-91 79,-196 79,-300 13,-144 13,-288 52,-432 26,-104 78,-222 131,-313 91,-183 196,-366 300,-536 0,0 0,-13 13,-39 -91,-26 -183,-65 -274,-92 -79,-26 -170,-52 -248,-65 -40,-13 -79,0 -118,13 -170,52 -327,144 -470,235 -27,13 -53,26 -79,40 131,-196 340,-301 549,-392 -144,-157 -248,-340 -288,-549 -26,-131 -39,-249 -52,-392 39,157 79,300 131,444 78,196 209,366 405,470 78,40 157,53 248,79 196,52 379,170 549,274 196,131 405,183 627,183 118,0 222,-65 314,-144 -39,-39 -79,-65 -131,-39 -196,66 -379,13 -523,-104 -78,-66 -143,-144 -209,-222 -78,-92 -65,-196 0,-288 53,-65 105,-131 170,-183 170,-144 196,-327 131,-523 -13,-26 -13,-52 -26,-65 -26,-65 -52,-91 -131,-78 -170,0 -313,-26 -431,-157 -52,-52 -183,-26 -235,39 -53,65 -92,144 -131,222 -65,118 -157,170 -287,118 0,0 -13,0 -13,-13 39,0 65,0 91,0 78,-13 131,-52 170,-118 39,-78 78,-157 131,-235 65,-91 156,-118 261,-105 13,0 39,0 39,0 105,-78 222,-65 327,-26 183,53 261,183 300,353 26,118 53,248 26,366 -26,105 -65,183 -143,261 -53,53 -105,105 -157,157 -79,92 -79,183 -13,275 117,169 274,287 496,300 118,13 209,-52 275,-131 13,-13 13,-13 26,-26 0,26 13,53 13,79 13,52 52,78 104,65 53,-13 105,-39 144,-78 105,-92 144,-275 105,-379 -79,91 -170,170 -275,209 -39,13 -52,13 -78,-26 -52,-66 -118,-105 -183,-170 -13,-13 -26,-39 -39,-66 26,-13 52,-26 78,-26 131,13 248,13 379,26 79,14 105,-13 79,-91 -53,-196 -131,-379 -223,-562 -78,-157 -52,-287 53,-392 65,-65 143,-78 235,-65 91,13 91,13 131,-66 0,0 13,-13 13,-13 0,-26 0,-52 0,-91 -79,-144 -157,-301 -236,-444 -104,-183 -222,-340 -379,-484 157,65 262,183 366,314 66,-249 -26,-523 -261,-654 -118,-65 -209,-26 -261,92 -26,39 -26,91 -53,131 -13,0 -39,-14 -52,-14 -196,-52 -392,-78 -588,-13 -13,0 -26,0 -52,0 -105,-13 -196,-26 -301,-13 -117,13 -222,13 -326,-26 0,0 0,0 0,0 39,66 91,131 117,209 66,118 66,262 92,392 0,39 -26,53 -39,39 -27,-13 -40,-39 -53,-65 -13,-52 -13,-91 -13,-144 -13,-117 -39,-235 -130,-339 -79,-105 -196,-157 -327,-118 -118,26 -170,118 -196,222 -13,79 0,170 0,248 13,105 39,196 52,301 13,92 26,183 105,248 -92,-13 -157,-65 -170,-156 -26,-118 -39,-236 -66,-340 -26,-118 -39,-249 0,-366 40,-118 118,-196 249,-222 91,-13 183,13 261,39 105,39 196,52 301,26 117,-26 222,-39 339,-13 40,13 92,0 131,0 39,0 78,-13 118,0 65,0 130,13 209,26 -40,-26 -79,-52 -118,-78 -209,-157 -418,-314 -640,-471 -131,-91 -248,-183 -405,-235 -79,-13 -144,-26 -222,-52 -66,0 -144,0 -209,13 -53,13 -105,39 -170,52 104,39 183,66 261,92 78,26 157,78 235,156 -313,-156 -614,-261 -954,-143 -326,104 -548,339 -666,653 118,-65 235,-131 392,-118 -13,14 -26,14 -39,14 -249,78 -458,209 -628,405 -104,130 -196,274 -287,418 -13,13 -26,26 -39,39 -26,26 -79,39 -105,65 -65,79 -117,157 -157,249 -65,117 -143,222 -248,300 -248,196 -522,327 -810,418 -104,39 -222,53 -327,79 0,0 0,-13 0,-13 92,-40 183,-79 275,-118 -13,-13 -13,-13 -13,-13 -13,0 -26,0 -53,0 -222,26 -444,-26 -640,-118 -91,-39 -183,-78 -287,-91 -235,-52 -484,-52 -706,65 -26,13 -39,26 -65,26 -66,13 -144,13 -209,13 -275,53 -497,196 -667,405 -183,210 -339,445 -496,667 -118,157 -196,340 -248,536 -27,91 -53,169 -92,248 -144,300 -287,588 -431,888 -52,118 -118,236 -170,340 -13,26 -39,52 -52,92 209,-118 392,-249 562,-405 130,-131 274,-249 418,-366 52,-40 117,-79 170,-118 0,13 0,26 -13,26 -105,105 -223,196 -327,314 -209,209 -405,418 -667,562 -117,65 -209,156 -287,261 -118,131 -261,235 -444,274 -131,13 -249,79 -327,170 -118,131 -235,275 -327,418 -170,275 -379,484 -614,706 -39,26 -65,65 -104,92 -40,26 -66,52 -105,91 301,-157 575,-340 810,-575 92,-91 157,-209 209,-314 92,-169 249,-274 418,-300 0,0 0,13 0,13 -182,91 -300,235 -378,405 -53,118 -118,235 -223,314 -196,170 -418,300 -653,418 -300,144 -588,326 -836,562 -157,130 -275,300 -444,431 -131,91 -170,261 -183,418 0,39 13,78 26,105 52,65 104,117 157,169 26,27 78,40 117,66 0,0 13,-13 13,-13 13,39 13,65 26,104 105,-104 157,-300 118,-483 39,52 65,104 52,156 -13,79 -39,157 -65,236 -13,39 0,52 39,65 39,0 78,0 118,0 0,26 0,65 -13,105 130,-157 209,-340 169,-549 14,26 40,52 40,78 13,131 -40,248 -92,379 52,0 105,13 144,13 0,0 0,13 0,26 -13,66 -39,79 -105,79m9304 -8298c0,183 -26,340 39,497 -91,-92 -117,-209 -104,-340 -131,274 -92,562 -66,849 -65,-39 -117,-78 -183,-104 26,52 53,91 79,131 26,39 65,91 91,130 -157,-91 -274,-287 -235,-418 52,39 91,65 157,105 0,-288 -13,-588 222,-850zm575 3620c-144,26 -379,-26 -497,-118 -91,-65 -143,-144 -170,-248 -52,-209 118,-353 275,-379 -39,26 -65,52 -105,65 -104,79 -130,170 -78,301 65,170 196,274 366,313 65,40 130,53 209,66zm-6115 -693c0,0 0,0 0,0 0,-144 0,-287 13,-431 0,-91 13,-183 52,-261 39,-92 104,-157 196,-196 -39,65 -78,117 -105,183 -39,130 -65,261 -91,405 -26,104 -52,209 -65,300z"/>
     </g>
     <path class="fil0 str0" d="M10010 8995c156,405 483,561 888,588 314,26 601,-79 863,-236 365,-196 679,-470 980,-757 339,-340 640,-719 940,-1085 209,-261 432,-523 706,-732 118,-91 196,-196 261,-313 144,-236 327,-445 562,-601 0,0 0,-13 13,-13 -156,13 -287,65 -418,130 -366,170 -692,405 -993,667 -313,274 -601,575 -862,901 -183,222 -379,405 -601,588 -288,235 -588,431 -928,562 -157,65 -327,105 -497,78 -65,-13 -117,-39 -183,-65 -104,-52 -222,-104 -352,-117 -170,-14 -353,65 -392,248 0,0 0,0 -13,13 26,52 26,91 26,144z"/>
     <path class="fil0 str0" d="M16726 8054c-157,157 -287,326 -457,470 -144,131 -314,262 -484,379 -222,144 -444,261 -679,379 -92,52 -183,78 -288,105 -78,26 -157,65 -222,130 -157,144 -327,275 -536,314 -52,13 -91,26 -143,26 -92,0 -157,52 -223,131 0,13 -13,13 -26,13 40,-79 79,-144 170,-170 105,-26 209,-52 314,-92 117,-39 222,-117 274,-222 -91,39 -170,66 -248,105 -118,52 -248,104 -366,157 -274,104 -483,274 -653,509 -53,79 -131,131 -183,209 -13,26 -26,66 -39,92 0,26 0,52 0,78 52,-13 117,-39 169,-52 0,0 0,0 0,0 -26,13 -52,26 -78,39 13,13 13,39 26,52 0,0 13,13 13,13 53,-13 105,-26 157,-39 26,-13 52,-26 78,-26 0,0 0,13 14,13 -27,26 -66,39 -92,65 0,0 0,14 0,14 65,-14 118,-27 170,-40 52,-13 287,-183 327,-222 13,-13 26,-39 39,-65 78,-131 196,-222 326,-301 340,-209 719,-326 1111,-392 0,0 13,0 26,-13 -52,-13 -78,-13 -117,-26 -105,-26 -183,-78 -236,-170 -26,-39 -39,-78 0,-117 144,209 379,222 602,222 339,13 640,-105 927,-288 105,-65 209,-130 314,-196 144,-91 287,-156 470,-183 -104,-209 -117,-418 -26,-627 -183,0 -274,-196 -431,-274z"/>
     <path class="fil0 str0" d="M23377 5584c26,79 39,144 65,196 39,92 79,170 118,248 26,53 39,118 65,183 26,-117 39,-235 26,-339 -13,-79 -13,-157 13,-236 27,-78 40,-156 40,-248 -79,131 -170,196 -327,196z"/>
    </g>
    <path class="fil1" d="M22619 5388c-13,26 -144,65 -248,39 -105,-26 -209,-104 -196,-143 13,-53 157,-66 261,-40 92,13 157,79 183,144z"/>
    <path class="fil1" d="M23403 5506c0,-79 52,-131 118,-170 65,-39 156,-13 170,13 13,39 -66,118 -118,144 -78,39 -118,39 -170,13z"/>
   </g>
  </g>
 </g>
</svg>
